<?xml version="1.0" encoding="UTF-8" standalone="no"?>
<svg width="36px" height="40px" viewBox="0 0 36 40" version="1.1" xmlns="http://www.w3.org/2000/svg" xmlns:xlink="http://www.w3.org/1999/xlink">
    <!-- Generator: Sketch 3.7 (28169) - http://www.bohemiancoding.com/sketch -->
    <title>resume</title>
    <desc>Created with Sketch.</desc>
    <defs>
        <path d="M0,7.99845994 C0,3.58103249 3.58285168,0 8.00377741,0 L26.5955946,0 L28.5463867,0 L28.5463867,0 C31.1660738,1.97906265 34.5595681,6.9297144 35,8.25537109 C35,8.25537109 35,7.97971908 35,8.25537109 C35,18.175631 35,32.0025274 35,32.0025274 C35,36.4194095 31.4188675,40 26.9922379,40 L8.00776211,40 C3.58519722,40 0,36.4150647 0,32.0015401 L0,7.99845994 Z" id="path-1"></path>
        <mask id="mask-2" maskContentUnits="userSpaceOnUse" maskUnits="objectBoundingBox" x="0" y="0" width="35" height="40" fill="white">
            <use xlink:href="#path-1"></use>
        </mask>
    </defs>
    <g id="Page-1" stroke="none" stroke-width="1" fill="none" fill-rule="evenodd">
        <g id="Desktop-HD" transform="translate(-995.000000, -472.000000)" stroke="#31BF98">
            <g id="Group-2" transform="translate(840.000000, 472.000000)">
                <g id="resume" transform="translate(155.500000, 0.000000)">
                    <use id="Rectangle-11" mask="url(#mask-2)" stroke-width="4" xlink:href="#path-1"></use>
                    <path d="M27,2 L27,9" id="Line" stroke-width="2" stroke-linecap="square"></path>
                    <path d="M27.3240741,9 L32.5092593,9" id="Line" stroke-width="2" stroke-linecap="square"></path>
                    <path d="M9.39814815,18 L26.25,18" id="Line" stroke-width="2" stroke-linecap="square"></path>
                    <path d="M9.39814815,23 L26.25,23" id="Line-Copy" stroke-width="2" stroke-linecap="square"></path>
                    <path d="M9.39814815,28 L26.25,28" id="Line-Copy-3" stroke-width="2" stroke-linecap="square"></path>
                </g>
            </g>
        </g>
    </g>
</svg>